<svg width="256" height="240" viewBox="0 0 256 240" fill="none" xmlns="http://www.w3.org/2000/svg">
<g clip-path="url(#clip0_229_11132)">
<path d="M250.066 0L140.219 81.279L160.646 33.379L250.066 0Z" fill="#E17726"/>
<path d="M6.19099 0.0960083L95.372 33.385L114.768 81.913L6.19099 0.0960083ZM205.86 172.858L254.411 173.782L237.443 231.424L178.2 215.113L205.86 172.858ZM50.139 172.858L77.696 215.113L18.553 231.425L1.68799 173.782L50.139 172.858Z" fill="#E27625"/>
<path d="M112.131 69.552L114.115 133.635L54.7441 130.934L71.6321 105.456L71.8461 105.211L112.131 69.552ZM143.254 68.837L184.154 105.213L184.366 105.457L201.254 130.935L141.896 133.635L143.254 68.837ZM79.4351 173.044L111.853 198.303L74.1951 216.484L79.4351 173.044ZM176.571 173.04L181.702 216.485L144.149 198.301L176.571 173.04Z" fill="#E27625"/>
<path d="M144.978 195.922L183.085 214.374L147.638 231.22L148.006 220.086L144.978 195.922ZM111.011 195.93L108.102 219.904L108.341 231.207L72.811 214.374L111.011 195.93Z" fill="#D5BFB2"/>
<path d="M100.007 141.999L109.965 162.927L76.062 152.995L100.007 141.999ZM155.992 142.001L180.05 152.995L146.036 162.924L155.992 142.001Z" fill="#233447"/>
<path d="M82.0259 172.83L76.5458 217.87L47.1729 173.815L82.0259 172.83ZM173.976 172.831L208.83 173.815L179.347 217.872L173.976 172.831ZM202.112 128.387L176.747 154.238L157.19 145.301L147.827 164.985L141.689 131.136L202.112 128.387ZM53.8749 128.387L114.31 131.136L108.171 164.985L98.8059 145.304L79.3528 154.239L53.8749 128.387Z" fill="#CC6228"/>
<path d="M52.166 123.082L80.864 152.203L81.858 180.952L52.166 123.082ZM203.863 123.03L174.117 181.003L175.237 152.203L203.863 123.03ZM112.907 124.856L114.062 132.126L116.916 150.237L115.081 205.862L106.406 161.177L106.403 160.715L112.907 124.856ZM143.078 124.755L149.599 160.715L149.596 161.177L140.899 205.974L140.555 194.769L139.198 149.907L143.078 124.755Z" fill="#E27525"/>
<path d="M177.788 151.046L176.817 176.024L146.543 199.611L140.423 195.287L147.283 159.952L177.788 151.046ZM78.3169 151.046L108.716 159.952L115.576 195.287L109.456 199.611L79.1809 176.022L78.3169 151.046Z" fill="#F5841F"/>
<path d="M67.0181 208.858L105.75 227.21L105.586 219.373L108.827 216.528H147.161L150.519 219.363L150.271 227.194L188.758 208.904L170.03 224.38L147.385 239.933H108.516L85.8861 224.316L67.0181 208.858Z" fill="#C0AC9D"/>
<path d="M142.204 193.479L147.68 197.348L150.889 222.952L146.245 219.031H109.769L105.213 223.031L108.317 197.35L113.795 193.479H142.204Z" fill="#161616"/>
<path d="M242.814 2.25L256 41.807L247.765 81.804L253.629 86.327L245.694 92.381L251.658 96.987L243.761 104.178L248.609 107.689L235.743 122.715L182.973 107.35L182.516 107.105L144.489 75.027L242.814 2.25ZM13.186 2.25L111.512 75.027L73.484 107.105L73.027 107.35L20.257 122.715L7.391 107.689L12.235 104.181L4.343 96.987L10.295 92.386L2.241 86.315L8.326 81.789L0 41.809L13.186 2.25Z" fill="#763E1A"/>
<path d="M180.392 103.99L236.305 120.269L254.47 176.255H206.546L173.526 176.671L197.54 129.863L180.392 103.99ZM75.6079 103.99L58.4569 129.863L82.4739 176.671L49.4689 176.255H1.63086L19.6939 120.27L75.6079 103.99ZM163.384 33.112L147.745 75.351L144.426 132.411L143.156 150.296L143.055 195.984H112.944L112.846 150.382L111.572 132.396L108.252 75.351L92.6149 33.112H163.384Z" fill="#F5841F"/>
</g>
<defs>
<clipPath id="clip0_229_11132">
<rect width="256" height="240" fill="white"/>
</clipPath>
</defs>
</svg>
